<svg xmlns="http://www.w3.org/2000/svg" width="147.87" height="35" viewBox="0 0 147.87 35"><rect class="svg__rect" x="0" y="0" width="90.89" height="35" fill="#31C4F3"/><rect class="svg__rect" x="88.89" y="0" width="58.980000000000004" height="35" fill="#389AD5"/><path class="svg__text" d="M15.70 22L14.22 22L14.22 13.47L17.22 13.47Q18.69 13.47 19.50 14.13Q20.30 14.79 20.30 16.05L20.30 16.05Q20.30 16.90 19.89 17.48Q19.47 18.06 18.73 18.37L18.73 18.37L20.65 21.92L20.65 22L19.06 22L17.35 18.71L15.70 18.71L15.70 22ZM15.70 14.66L15.70 17.52L17.22 17.52Q17.97 17.52 18.39 17.15Q18.82 16.77 18.82 16.11L18.82 16.11Q18.82 15.43 18.43 15.05Q18.04 14.68 17.26 14.66L17.26 14.66L15.70 14.66ZM30.27 22L24.69 22L24.69 13.47L30.23 13.47L30.23 14.66L26.18 14.66L26.18 17.02L29.68 17.02L29.68 18.19L26.18 18.19L26.18 20.82L30.27 20.82L30.27 22ZM35.25 22L33.71 22L36.93 13.47L38.26 13.47L41.49 22L39.94 22L39.24 20.01L35.94 20.01L35.25 22ZM37.59 15.28L36.35 18.82L38.83 18.82L37.59 15.28ZM50.80 22L45.44 22L45.44 13.47L46.92 13.47L46.92 20.82L50.80 20.82L50.80 22ZM56.49 22L55.01 22L55.01 13.47L56.49 13.47L56.49 22ZM60.86 19.42L60.86 19.42L62.35 19.42Q62.35 20.15 62.83 20.55Q63.31 20.95 64.20 20.95L64.20 20.95Q64.98 20.95 65.37 20.63Q65.76 20.32 65.76 19.80L65.76 19.80Q65.76 19.24 65.36 18.94Q64.97 18.63 63.93 18.32Q62.90 18.01 62.29 17.63L62.29 17.63Q61.13 16.90 61.13 15.72L61.13 15.72Q61.13 14.69 61.97 14.02Q62.81 13.35 64.15 13.35L64.15 13.35Q65.04 13.35 65.74 13.68Q66.44 14.01 66.83 14.61Q67.23 15.22 67.23 15.96L67.23 15.96L65.76 15.96Q65.76 15.29 65.34 14.91Q64.92 14.54 64.14 14.54L64.14 14.54Q63.41 14.54 63.01 14.85Q62.61 15.16 62.61 15.71L62.61 15.71Q62.61 16.18 63.04 16.50Q63.48 16.81 64.47 17.10Q65.47 17.40 66.07 17.78Q66.68 18.16 66.96 18.65Q67.24 19.13 67.24 19.79L67.24 19.79Q67.24 20.86 66.42 21.49Q65.60 22.12 64.20 22.12L64.20 22.12Q63.28 22.12 62.50 21.77Q61.73 21.43 61.29 20.83Q60.86 20.22 60.86 19.42ZM77.11 22L71.53 22L71.53 13.47L77.06 13.47L77.06 14.66L73.01 14.66L73.01 17.02L76.51 17.02L76.51 18.19L73.01 18.19L73.01 20.82L77.11 20.82L77.11 22ZM74.75 12.92L73.61 12.92L74.75 11.14L76.37 11.14L74.75 12.92Z" fill="#FFFFFF"/><path class="svg__text" d="M105.46 22L103.08 22L103.08 13.60L106.92 13.60Q108.06 13.60 108.90 13.98Q109.74 14.35 110.20 15.06Q110.65 15.76 110.65 16.71L110.65 16.71Q110.65 17.66 110.20 18.35Q109.74 19.05 108.90 19.42Q108.06 19.80 106.92 19.80L106.92 19.80L105.46 19.80L105.46 22ZM105.46 15.47L105.46 17.93L106.78 17.93Q107.51 17.93 107.88 17.61Q108.25 17.29 108.25 16.71L108.25 16.71Q108.25 16.12 107.88 15.80Q107.51 15.47 106.78 15.47L106.78 15.47L105.46 15.47ZM116.82 22L114.40 22L118.11 13.60L120.45 13.60L124.17 22L121.70 22L121.04 20.37L117.49 20.37L116.82 22ZM119.26 15.93L118.18 18.61L120.34 18.61L119.26 15.93ZM130.70 22L128.32 22L128.32 13.60L132.16 13.60Q133.31 13.60 134.14 13.98Q134.98 14.35 135.44 15.06Q135.90 15.76 135.90 16.71L135.90 16.71Q135.90 17.62 135.47 18.30Q135.04 18.98 134.25 19.36L134.25 19.36L136.06 22L133.52 22L131.99 19.77L130.70 19.77L130.70 22ZM130.70 15.47L130.70 17.93L132.02 17.93Q132.75 17.93 133.12 17.61Q133.49 17.29 133.49 16.71L133.49 16.71Q133.49 16.12 133.12 15.79Q132.75 15.47 132.02 15.47L132.02 15.47L130.70 15.47Z" fill="#FFFFFF" x="101.89"/></svg>