<svg xmlns="http://www.w3.org/2000/svg" width="145.86" height="35" viewBox="0 0 145.86 35"><rect class="svg__rect" x="0" y="0" width="101.44" height="35" fill="#31C4F3"/><rect class="svg__rect" x="99.44" y="0" width="46.420000000000016" height="35" fill="#389AD5"/><path class="svg__text" d="M15.70 22L14.22 22L14.22 13.47L17.22 13.47Q18.69 13.47 19.50 14.13Q20.30 14.79 20.30 16.05L20.30 16.05Q20.30 16.90 19.89 17.48Q19.47 18.06 18.73 18.37L18.73 18.37L20.65 21.92L20.65 22L19.06 22L17.35 18.71L15.70 18.71L15.70 22ZM15.70 14.66L15.70 17.52L17.22 17.52Q17.97 17.52 18.39 17.15Q18.82 16.77 18.82 16.11L18.82 16.11Q18.82 15.43 18.43 15.05Q18.04 14.68 17.26 14.66L17.26 14.66L15.70 14.66ZM30.27 22L24.69 22L24.69 13.47L30.23 13.47L30.23 14.66L26.18 14.66L26.18 17.02L29.68 17.02L29.68 18.19L26.18 18.19L26.18 20.82L30.27 20.82L30.27 22ZM35.25 22L33.71 22L36.93 13.47L38.26 13.47L41.49 22L39.94 22L39.24 20.01L35.94 20.01L35.25 22ZM37.59 15.28L36.35 18.82L38.83 18.82L37.59 15.28ZM50.80 22L45.44 22L45.44 13.47L46.92 13.47L46.92 20.82L50.80 20.82L50.80 22ZM56.49 22L55.01 22L55.01 13.47L56.49 13.47L56.49 22ZM60.86 19.42L60.86 19.42L62.35 19.42Q62.35 20.15 62.83 20.55Q63.31 20.95 64.20 20.95L64.20 20.95Q64.98 20.95 65.37 20.63Q65.76 20.32 65.76 19.80L65.76 19.80Q65.76 19.24 65.36 18.94Q64.97 18.63 63.93 18.32Q62.90 18.01 62.29 17.63L62.29 17.63Q61.13 16.90 61.13 15.72L61.13 15.72Q61.13 14.69 61.97 14.02Q62.81 13.35 64.15 13.35L64.15 13.35Q65.04 13.35 65.74 13.68Q66.44 14.01 66.83 14.61Q67.23 15.22 67.23 15.96L67.23 15.96L65.76 15.96Q65.76 15.29 65.34 14.91Q64.92 14.54 64.14 14.54L64.14 14.54Q63.41 14.54 63.01 14.85Q62.61 15.16 62.61 15.71L62.61 15.71Q62.61 16.18 63.04 16.50Q63.48 16.81 64.47 17.10Q65.47 17.40 66.07 17.78Q66.68 18.16 66.96 18.65Q67.24 19.13 67.24 19.79L67.24 19.79Q67.24 20.86 66.42 21.49Q65.60 22.12 64.20 22.12L64.20 22.12Q63.28 22.12 62.50 21.77Q61.73 21.43 61.29 20.83Q60.86 20.22 60.86 19.42ZM77.11 22L71.53 22L71.53 13.47L77.06 13.47L77.06 14.66L73.01 14.66L73.01 17.02L76.51 17.02L76.51 18.19L73.01 18.19L73.01 20.82L77.11 20.82L77.11 22ZM83.76 22L81.30 22L81.30 13.47L83.82 13.47Q84.95 13.47 85.83 13.97Q86.70 14.48 87.18 15.40Q87.66 16.33 87.66 17.52L87.66 17.52L87.66 17.95Q87.66 19.16 87.18 20.08Q86.70 21.00 85.80 21.50Q84.91 22 83.76 22L83.76 22ZM82.78 14.66L82.78 20.82L83.75 20.82Q84.92 20.82 85.54 20.09Q86.16 19.36 86.18 17.99L86.18 17.99L86.18 17.52Q86.18 16.13 85.57 15.40Q84.97 14.66 83.82 14.66L83.82 14.66L82.78 14.66Z" fill="#FFFFFF"/><path class="svg__text" d="M118.17 22L113.63 22L113.63 13.60L117.93 13.60Q119.53 13.60 120.37 14.19Q121.22 14.79 121.22 15.79L121.22 15.79Q121.22 16.39 120.92 16.87Q120.62 17.34 120.08 17.62L120.08 17.62Q120.81 17.87 121.21 18.41Q121.62 18.94 121.62 19.70L121.62 19.70Q121.62 20.80 120.73 21.40Q119.84 22 118.17 22L118.17 22ZM115.98 18.58L115.98 20.28L117.98 20.28Q119.22 20.28 119.22 19.43L119.22 19.43Q119.22 18.58 117.98 18.58L117.98 18.58L115.98 18.58ZM115.98 15.31L115.98 16.94L117.61 16.94Q118.81 16.94 118.81 16.12L118.81 16.12Q118.81 15.31 117.61 15.31L117.61 15.31L115.98 15.31ZM128.46 18.95L125.26 13.60L127.77 13.60L129.76 16.94L131.75 13.60L134.05 13.60L130.84 18.99L130.84 22L128.46 22L128.46 18.95Z" fill="#FFFFFF" x="112.44"/></svg>